<svg width="100" height="100" viewBox="0 0 100 100" fill="none" xmlns="http://www.w3.org/2000/svg">
<path d="M50.0002 0.000244141C22.4002 0.000244141 0.000244141 22.4002 0.000244141 50.0002C0.000244141 77.6002 22.4002 100 50.0002 100C77.6002 100 100 77.6002 100 50.0002C100 22.4002 77.6002 0.000244141 50.0002 0.000244141ZM50.0002 15.0002C58.3002 15.0002 65.0002 21.7002 65.0002 30.0002C65.0002 38.3002 58.3002 45.0002 50.0002 45.0002C41.7002 45.0002 35.0002 38.3002 35.0002 30.0002C35.0002 21.7002 41.7002 15.0002 50.0002 15.0002ZM50.0002 86.0002C37.5002 86.0002 26.4502 79.6002 20.0002 69.9002C20.1502 59.9502 40.0002 54.5002 50.0002 54.5002C59.9502 54.5002 79.8502 59.9502 80.0002 69.9002C73.5502 79.6002 62.5002 86.0002 50.0002 86.0002Z" fill="black"/>
</svg>
